<?xml version="1.0" encoding="UTF-8" standalone="no"?>
<svg
   width="185"
   height="185"
   viewBox="0 0 185 185"
   fill="none"
   version="1.1"
   id="svg3"
   sodipodi:docname="logo.svg"
   inkscape:version="1.3.2 (091e20e, 2023-11-25, custom)"
   xmlns:inkscape="http://www.inkscape.org/namespaces/inkscape"
   xmlns:sodipodi="http://sodipodi.sourceforge.net/DTD/sodipodi-0.dtd"
   xmlns="http://www.w3.org/2000/svg"
   xmlns:svg="http://www.w3.org/2000/svg">
  <sodipodi:namedview
     id="namedview3"
     pagecolor="#ffffff"
     bordercolor="#000000"
     borderopacity="0.25"
     inkscape:showpageshadow="2"
     inkscape:pageopacity="0.0"
     inkscape:pagecheckerboard="0"
     inkscape:deskcolor="#d1d1d1"
     showgrid="false"
     inkscape:zoom="4.3837838"
     inkscape:cx="92.385943"
     inkscape:cy="92.5"
     inkscape:window-width="1920"
     inkscape:window-height="1046"
     inkscape:window-x="-11"
     inkscape:window-y="-11"
     inkscape:window-maximized="1"
     inkscape:current-layer="svg3" />
  <path
     d="M0 92.5C0 41.4137 41.4137 0 92.5 0H135C162.614 0 185 22.3858 185 50V92.5C185 143.586 143.586 185 92.5 185V185C41.4137 185 0 143.586 0 92.5V92.5Z"
     fill="url(#paint0_linear_13_13)"
     id="path1" />
  <defs
     id="defs3">
    <linearGradient
       id="paint0_linear_13_13"
       x1="0"
       y1="92"
       x2="185"
       y2="92"
       gradientUnits="userSpaceOnUse">
      <stop
         stop-color="#FFDB6E"
         id="stop2" />
      <stop
         offset="1"
         stop-color="#FFBC5E"
         id="stop3" />
    </linearGradient>
  </defs>
  <path
     style="fill:#0000ff;stroke:#060606;stroke-width:2.33684"
     d="m 81.955331,28.987953 c -0.114631,0.761448 -0.04726,1.551493 -0.343893,2.284344 -0.298434,0.737362 -1.191306,1.373899 -1.438621,2.119537 -1.527623,4.605689 -0.383102,9.64533 -2.139778,14.213691 -2.829748,7.358946 -2.170107,1.742847 -6.811021,8.059532 -6.356823,8.65219 -0.870616,3.092292 -3.947132,11.345923 -3.395887,9.110486 -2.421962,0.321205 -7.078493,9.836244 -0.18295,0.373837 -1.112933,8.101185 -1.337361,8.883554 -0.40502,1.411781 -1.350021,2.736597 -1.744306,4.150067 -0.787236,2.822061 0.326978,5.946453 -1.299151,8.629743 -6.172775,10.185772 -2.156433,-2.28692 -5.372393,5.939992 -1.484703,3.7981 -1.205787,8.00957 -1.795885,11.92935 -0.343894,2.28435 0.06686,4.68918 -1.031678,6.85303 -0.16778,0.33044 -1.008845,0.53241 -1.247571,0.85045 -0.704568,0.93868 -2.077658,7.05101 -1.22273,8.12211 0.107683,0.13493 0.910415,0.28055 1.056517,0.41864 0.457649,0.43248 -1.235267,1.12427 -0.229259,1.52288 0.249038,0.0987 0.845708,0.0661 1.094733,0.1648 1.087619,0.43094 0.987212,0.66012 2.074831,1.09106"
     id="path3" />
  <path
     style="fill:#0000ff;stroke:#060606;stroke-width:1.41912"
     d="m 80.715938,32.900505 c 2.253608,-1.497018 4.721919,-1.221176 7.011448,-2.124321 1.040369,-0.410392 2.032834,-1.144005 3.049252,-1.716007 1.819697,-0.760576 3.625602,-1.652379 5.459091,-2.28173 1.511141,-0.518703 3.045224,-0.696174 4.560951,-1.157679 1.81224,-0.551783 3.60154,-1.403555 5.41844,-1.88081 0.78795,-0.206973 1.58089,0.03528 2.36919,-0.164805 0.74378,-0.188788 1.45146,-0.751037 2.19177,-0.992875 0.52704,-0.172172 1.06595,-0.07133 1.593,-0.243508 2.9158,-0.952512 1.26958,-0.884983 3.26733,-1.288854 0.70323,-0.142167 1.40942,0.0019 2.11045,-0.191041 2.59484,-0.714057 0.67182,-0.478319 3.00861,-1.315085 0.71258,-0.255165 1.4411,-0.311883 2.15112,-0.591958 2.39619,-0.945223 -0.32685,-0.729216 2.70921,-0.940407 0.95741,-0.06659 7.54127,-0.211601 8.57862,0.464836 0.21929,0.142996 0.2351,0.663142 0.43613,0.854306 0.42175,0.401041 1.30957,-0.0016 1.81109,0.183646 0.34157,0.126152 0.65015,0.39224 0.99425,0.505858 0.0972,0.03208 1.44164,-0.05946 1.55235,0.157409 0.29077,0.569539 -0.47186,0.357194 0.21808,0.427155"
     id="path4" />
  <path
     style="fill:#0000ff;stroke:#060606;stroke-width:1.82509"
     d="m 66.77389,84.161304 c 1.376759,-0.213538 4.585282,-0.661239 5.669059,-1.11618 2.835523,-1.19028 5.623902,-3.058405 8.460251,-4.234 2.650406,-1.098522 5.320265,-1.720145 7.980396,-2.580221 5.646314,-1.82556 11.283604,-4.048589 16.934744,-5.627367 1.46449,-0.409145 2.92502,-0.345219 4.38987,-0.680874 3.96718,-0.909038 7.9206,-3.834432 11.87617,-4.447944 1.49746,-0.232257 3.10515,0.321691 4.57871,0.474351 3.35772,0.347858 6.71545,0.695716 10.07315,1.043571"
     id="path5" />
</svg>
